#!OML:ASF E:\emotionWalksFemale\Project 1\Capture day 1\Session 1\Female1.ASF
:FULLY-SPECIFIED
:DEGREES
1689
root 8.85806 15.0505 -13.5785 185.293 13.281 185.969
lowerback 5.21071 1.3996 -1.45168
upperback -4.27298 1.72287 -3.33049
thorax -7.34185 0.904241 -2.8915
lowerneck -8.12232 -0.978855 -6.71743
upperneck 3.99745 -1.04143 8.846
head 2.59304 -0.270493 3.72953
rclavicle 4.37326e-015 -3.49861e-014
rhumerus -39.2917 -10.6715 -63.7001
rradius 50.3087
rwrist 9.50671
rhand 1.56488 -50.3776
rfingers 7.12502
rthumb 27.0884 -78.4543
lclavicle 4.37326e-015 -3.49861e-014
lhumerus -50.2216 22.9015 36.4331
lradius 38.7864
lwrist -8.51623
lhand -6.00628 -29.729
lfingers 7.12502
lthumb 19.8263 -0.720199
rfemur 21.6068 13.446 41.4344
rtibia -1.59028e-014
rfoot -12.4926 -13.8713
rtoes 14.6412
lfemur -40.131 -27.5723 -4.96484
ltibia 30.2633
lfoot -28.2029 19.4718
ltoes -31.3217
1690
root 8.8802 15.0325 -13.6715 185.462 13.8906 186.252
lowerback 5.00138 1.55634 -1.29967
upperback -4.3441 1.95292 -3.34481
thorax -7.28216 1.01066 -3.01183
lowerneck -8.1259 -0.998028 -6.90025
upperneck 3.9037 -1.05442 9.19113
head 2.57045 -0.264497 3.86527
rclavicle 2.68359e-014 -9.38264e-014
rhumerus -39.0035 -10.6427 -63.3785
rradius 50.8658
rwrist 9.11192
rhand 1.07926 -50.7428
rfingers 7.12502
rthumb 26.6237 -78.8909
lclavicle 2.68359e-014 -9.38264e-014
lhumerus -50.6805 23.2159 34.7956
lradius 38.4687
lwrist -8.09436
lhand -6.63506 -28.8385
lfingers 7.12502
lthumb 19.2218 0.231547
rfemur 22.0003 13.8016 41.7037
rtibia -6.67916e-014
rfoot -12.6879 -13.7899
rtoes 14.4185
lfemur -39.4415 -27.3599 -5.08779
ltibia 30.6078
lfoot -28.2678 19.0409
ltoes -29.7096
1691
root 8.90589 15.0421 -13.7619 185.67 14.5281 186.372
lowerback 4.6974 1.72311 -1.36815
upperback -4.37114 2.18367 -3.38509
thorax -7.12644 1.1304 -3.02849
lowerneck -8.28637 -1.04981 -7.19475
upperneck 3.84995 -1.09519 9.58197
head 2.58893 -0.268278 4.03307
rclavicle -2.62893e-014 -9.54166e-014
rhumerus -38.6246 -10.5371 -63.0882
rradius 51.5106
rwrist 8.58212
rhand 0.681053 -51.1321
rfingers 7.12502
rthumb 26.2425 -79.3375
lclavicle -2.62893e-014 -9.54166e-014
lhumerus -51.0921 23.57 33.3343
lradius 38.2921
lwrist -7.58684
lhand -7.46954 -27.7065
lfingers 7.12502
lthumb 18.4192 1.44146
rfemur 22.2531 14.2123 41.7424
rtibia 3.18055e-015
rfoot -12.7882 -13.5947
rtoes 14.1268
lfemur -39.4849 -28.7599 -4.25904
ltibia 30.8456
lfoot -28.4994 19.3911
ltoes -25.3455
1692
root 8.93193 15.0558 -13.8509 185.876 14.9865 186.303
lowerback 4.41773 1.80358 -1.65508
upperback -4.39833 2.28485 -3.45875
thorax -6.99792 1.19852 -2.9443
lowerneck -8.75509 -1.20721 -7.29122
upperneck 4.05411 -1.28814 9.73727
head 2.74527 -0.344388 4.08965
rclavicle -4.49253e-014 -3.97569e-014
rhumerus -38.1647 -10.4098 -62.885
rradius 52.1366
rwrist 8.11224
rhand 0.173004 -51.4381
rfingers 7.12502
rthumb 25.7561 -79.715
lclavicle -4.49253e-014 -3.97569e-014
lhumerus -51.558 23.626 32.1359
lradius 38.3614
lwrist -6.62974
lhand -8.49352 -27.0367
lfingers 7.12502
lthumb 17.4339 2.20151
rfemur 22.437 14.4558 41.5847
rtibia 3.81667e-014
rfoot -12.6848 -13.3901
rtoes 12.9334
lfemur -40.1047 -31.1747 -2.93517
ltibia 30.8841
lfoot -27.7536 20.9253
ltoes -23.1021
1693
root 8.95571 15.0664 -13.9357 186.018 15.3126 186.106
lowerback 4.37351 1.81073 -2.04035
upperback -4.49535 2.27357 -3.58449
thorax -7.08727 1.21587 -2.86307
lowerneck -8.66014 -1.15928 -7.39026
upperneck 3.68975 -1.20205 10.104
head 2.61809 -0.289176 4.22232
rclavicle -4.00551e-014 -5.24792e-014
rhumerus -37.7831 -10.2549 -62.8121
rradius 52.602
rwrist 7.67138
rhand -1.27777 -51.169
rfingers 7.12502
rthumb 24.3659 -79.6399
lclavicle -4.00551e-014 -5.24792e-014
lhumerus -52.0997 24.4493 30.2055
lradius 37.8774
lwrist -6.77592
lhand -9.22758 -27.6173
lfingers 7.12502
lthumb 16.7274 1.68208
rfemur 22.6025 14.5548 41.3054
rtibia 1.90833e-014
rfoot -12.4837 -13.2034
rtoes 12.0233
lfemur -41.0168 -33.849 -1.44744
ltibia 30.7467
lfoot -28.497 23.0915
ltoes -18.1076
1694
root 8.98132 15.0791 -14.0192 186.187 15.5427 185.736
lowerback 4.31687 1.7993 -2.52296
upperback -4.62879 2.23456 -3.81515
thorax -7.20958 1.22702 -2.83729
lowerneck -8.24111 -1.03149 -7.67871
upperneck 3.12439 -0.996552 10.6433
head 2.36953 -0.181833 4.44375
rclavicle 1.50082e-014 -1.27222e-014
rhumerus -37.532 -10.2225 -62.7928
rradius 52.9067
rwrist 7.39033
rhand -2.81584 -50.9967
rfingers 7.12502
rthumb 22.8907 -79.6581
lclavicle 1.50082e-014 -1.27222e-014
lhumerus -52.5425 24.5246 28.7962
lradius 37.8533
lwrist -6.35095
lhand -10.0579 -27.0327
lfingers 7.12502
lthumb 15.9279 2.33231
rfemur 22.6811 14.5732 40.8375
rtibia -8.26944e-014
rfoot -12.4011 -12.9778
rtoes 11.893
lfemur -41.7835 -35.6546 -0.540029
ltibia 30.5711
lfoot -26.9989 25.8599
ltoes -20.0544
1695
root 9.00953 15.0907 -14.1086 186.293 15.7711 185.294
lowerback 4.08091 1.80292 -3.09771
upperback -4.6621 2.22286 -4.05141
thorax -7.1234 1.25736 -2.7558
lowerneck -9.15944 -1.21348 -7.59501
upperneck 3.75457 -1.24115 10.6502
head 2.72976 -0.268979 4.42618
rclavicle -1.98785e-015 -7.4743e-014
rhumerus -37.1313 -10.1799 -62.7832
rradius 53.0479
rwrist 7.11831
rhand -3.41242 -51.398
rfingers 7.12502
rthumb 22.3181 -80.1291
lclavicle -1.98785e-015 -7.4743e-014
lhumerus -52.8265 24.653 27.5815
lradius 37.9404
lwrist -5.85107
lhand -11.2171 -25.376
lfingers 7.12502
lthumb 14.8114 4.07468
rfemur 22.85 14.5628 40.317
rtibia -1.90833e-014
rfoot -12.3197 -12.7281
rtoes 12.0086
lfemur -41.6681 -35.8671 -0.904173
ltibia 30.4677
lfoot -24.014 24.2581
ltoes -6.60959
